<?xml version="1.0" encoding="UTF-8" standalone="no"?>
<svg
   xmlns:v="http://schemas.microsoft.com/visio/2003/SVGExtensions/"
   xmlns:dc="http://purl.org/dc/elements/1.1/"
   xmlns:cc="http://creativecommons.org/ns#"
   xmlns:rdf="http://www.w3.org/1999/02/22-rdf-syntax-ns#"
   xmlns:svg="http://www.w3.org/2000/svg"
   xmlns="http://www.w3.org/2000/svg"
   xmlns:sodipodi="http://sodipodi.sourceforge.net/DTD/sodipodi-0.dtd"
   xmlns:inkscape="http://www.inkscape.org/namespaces/inkscape"
   id="svg302"
   version="1.1"
   class="st6"
   xml:space="preserve"
   viewBox="0 0 477.3368 264.11152"
   height="3.6682155in"
   width="6.6296778in"
   sodipodi:docname="ddd1.svg"
   style="font-size:12px;overflow:visible;color-interpolation-filters:sRGB;fill:none;fill-rule:evenodd;stroke-linecap:square;stroke-miterlimit:3"
   inkscape:version="0.92.2 (5c3e80d, 2017-08-06)"><sodipodi:namedview
     pagecolor="#ffffff"
     bordercolor="#666666"
     borderopacity="1"
     objecttolerance="10"
     gridtolerance="10"
     guidetolerance="10"
     inkscape:pageopacity="0"
     inkscape:pageshadow="2"
     inkscape:window-width="1920"
     inkscape:window-height="1001"
     id="namedview176"
     showgrid="false"
     inkscape:zoom="0.89393939"
     inkscape:cx="384.44639"
     inkscape:cy="98.979582"
     inkscape:window-x="-9"
     inkscape:window-y="-9"
     inkscape:window-maximized="1"
     inkscape:current-layer="svg302" /><metadata
     id="metadata308"><rdf:RDF><cc:Work
         rdf:about=""><dc:format>image/svg+xml</dc:format><dc:type
           rdf:resource="http://purl.org/dc/dcmitype/StillImage" /><dc:title /></cc:Work></rdf:RDF></metadata><defs
     id="defs306" /><v:documentProperties
     v:viewMarkup="false"
     v:langID="1033"><v:userDefs><v:ud
         v:val="VT0(1):26"
         v:nameU="msvNoAutoConnect" /></v:userDefs></v:documentProperties><style
     id="style2"
     type="text/css"><![CDATA[
		.st1 {fill:#ffffff;stroke:none;stroke-linecap:round;stroke-linejoin:round;stroke-width:0.75}
		.st2 {stroke:#000000;stroke-linecap:round;stroke-linejoin:round;stroke-width:0.669521}
		.st3 {fill:#000000;font-family:Segoe UI;font-size:0.75em}
		.st4 {font-size:1em}
		.st5 {stroke:#000000;stroke-linecap:round;stroke-linejoin:round;stroke-width:0.33476}
		.st6 {fill:none;fill-rule:evenodd;font-size:12px;overflow:visible;stroke-linecap:square;stroke-miterlimit:3}
	]]></style><g
     id="shape3-1"
     v:mID="3"
     v:groupContext="shape"
     transform="translate(348.19679,-527.93024)"><title
       id="title6">Sheet.3</title><path
       d="M 0,725.12 V 792 h 129.14 v -66.88 z"
       class="st1"
       id="path8"
       style="fill:#ffffff;stroke:none;stroke-width:0.75;stroke-linecap:round;stroke-linejoin:round"
       inkscape:connector-curvature="0" /></g><g
     id="shape4-3"
     v:mID="4"
     v:groupContext="shape"
     transform="translate(163.92879,-637.74824)"><title
       id="title11">Sheet.4</title><path
       d="m 0,759 c 0,-18.22 17.85,-33.01 39.85,-33.01 22.02,0 39.85,14.79 39.85,33.01 0,18.23 -17.83,33 -39.85,33 C 17.85,792 0,777.23 0,759 Z"
       class="st1"
       id="path13"
       style="fill:#ffffff;stroke:none;stroke-width:0.75;stroke-linecap:round;stroke-linejoin:round"
       inkscape:connector-curvature="0" /></g><g
     id="shape5-5"
     v:mID="5"
     v:groupContext="shape"
     transform="translate(163.92879,-637.74824)"><title
       id="title16">Sheet.5</title><desc
       id="desc18">Shipping</desc><v:textBlock
       v:margins="rect(4,4,4,4)" /><v:textRect
       cx="39.8499"
       cy="758.996"
       width="79.7"
       height="66.0071" /><path
       d="m 0,759 c 0,-18.22 17.85,-33.01 39.85,-33.01 22.02,0 39.85,14.79 39.85,33.01 0,18.23 -17.83,33 -39.85,33 C 17.85,792 0,777.23 0,759"
       class="st2"
       id="path20"
       style="stroke:#000000;stroke-width:0.66952097;stroke-linecap:round;stroke-linejoin:round"
       inkscape:connector-curvature="0" /><text
       x="22.25"
       y="761.70001"
       class="st3"
       v:langID="1033"
       id="text22"
       style="font-size:9px;font-family:'Segoe UI';fill:#000000"><v:paragraph
   v:horizAlign="1" /><v:tabList />Shipping</text>
</g><g
     id="shape7-9"
     v:mID="7"
     v:groupContext="shape"
     transform="translate(121.98179,-557.72124)"><title
       id="title25">Sheet.7</title><path
       d="m 0,773.45 c 0,-10.24 14.16,-18.54 31.61,-18.54 17.47,0 31.61,8.3 31.61,18.54 C 63.22,783.71 49.08,792 31.61,792 14.16,792 0,783.71 0,773.45 Z"
       class="st1"
       id="path27"
       style="fill:#ffffff;stroke:none;stroke-width:0.75;stroke-linecap:round;stroke-linejoin:round"
       inkscape:connector-curvature="0" /></g><g
     id="shape8-11"
     v:mID="8"
     v:groupContext="shape"
     transform="translate(121.98179,-557.72124)"><title
       id="title30">Sheet.8</title><desc
       id="desc32">Accounts</desc><v:textBlock
       v:margins="rect(4,4,4,4)" /><v:textRect
       cx="31.6102"
       cy="773.454"
       width="63.23"
       height="37.0925" /><path
       d="m 0,773.45 c 0,-10.24 14.16,-18.54 31.61,-18.54 17.47,0 31.61,8.3 31.61,18.54 C 63.22,783.71 49.08,792 31.61,792 14.16,792 0,783.71 0,773.45"
       class="st2"
       id="path34"
       style="stroke:#000000;stroke-width:0.66952097;stroke-linecap:round;stroke-linejoin:round"
       inkscape:connector-curvature="0" /><text
       x="13.39"
       y="776.15002"
       class="st3"
       v:langID="1033"
       id="text36"
       style="font-size:9px;font-family:'Segoe UI';fill:#000000"><v:paragraph
   v:horizAlign="1" /><v:tabList />Accounts</text>
</g><g
     id="shape10-15"
     v:mID="10"
     v:groupContext="shape"
     transform="translate(262.20579,-716.31424)"><title
       id="title39">Sheet.10</title><path
       d="m 0,769.95 c 0,-12.18 14.96,-22.05 33.41,-22.05 18.46,0 33.41,9.87 33.41,22.05 C 66.82,782.14 51.87,792 33.41,792 14.96,792 0,782.14 0,769.95 Z"
       class="st1"
       id="path41"
       style="fill:#ffffff;stroke:none;stroke-width:0.75;stroke-linecap:round;stroke-linejoin:round"
       inkscape:connector-curvature="0" /></g><g
     id="shape11-17"
     v:mID="11"
     v:groupContext="shape"
     transform="translate(262.20579,-716.31424)"><title
       id="title44">Sheet.11</title><desc
       id="desc46">Drone management</desc><v:textBlock
       v:margins="rect(4,4,4,4)" /><v:textRect
       cx="33.408"
       cy="769.949"
       width="66.82"
       height="44.1021" /><path
       d="m 0,769.95 c 0,-12.18 14.96,-22.05 33.41,-22.05 18.46,0 33.41,9.87 33.41,22.05 C 66.82,782.14 51.87,792 33.41,792 14.96,792 0,782.14 0,769.95"
       class="st2"
       id="path48"
       style="stroke:#000000;stroke-width:0.66952097;stroke-linecap:round;stroke-linejoin:round"
       inkscape:connector-curvature="0" /><text
       x="21.15"
       y="767.25"
       class="st3"
       v:langID="1033"
       id="text52"
       style="font-size:9px;font-family:'Segoe UI';fill:#000000"><v:paragraph
   v:horizAlign="1" /><v:tabList />Drone <tspan
   x="7.0999999"
   dy="1.2em"
   class="st4"
   id="tspan50"
   style="font-size:9px">management</tspan></text>
</g><g
     id="shape14-22"
     v:mID="14"
     v:groupContext="shape"
     transform="translate(381.75479,-529.39124)"><title
       id="title55">Sheet.14</title><path
       d="m 0,772.72 c 0,-10.64 16.57,-19.27 37,-19.27 20.45,0 37.01,8.63 37.01,19.27 C 74.01,783.38 57.45,792 37,792 16.57,792 0,783.38 0,772.72 Z"
       class="st1"
       id="path57"
       style="fill:#ffffff;stroke:none;stroke-width:0.75;stroke-linecap:round;stroke-linejoin:round"
       inkscape:connector-curvature="0" /></g><g
     id="shape15-24"
     v:mID="15"
     v:groupContext="shape"
     transform="translate(381.75479,-529.39124)"><title
       id="title60">Sheet.15</title><desc
       id="desc62">ETA Analysis</desc><v:textBlock
       v:margins="rect(4,4,4,4)" /><v:textRect
       cx="37.0035"
       cy="772.724"
       width="74.01"
       height="38.5528" /><path
       d="m 0,772.72 c 0,-10.64 16.57,-19.27 37,-19.27 20.45,0 37.01,8.63 37.01,19.27 C 74.01,783.38 57.45,792 37,792 16.57,792 0,783.38 0,772.72"
       class="st2"
       id="path64"
       style="stroke:#000000;stroke-width:0.66952097;stroke-linecap:round;stroke-linejoin:round"
       inkscape:connector-curvature="0" /><text
       x="12.32"
       y="775.41998"
       class="st3"
       v:langID="1033"
       id="text66"
       style="font-size:9px;font-family:'Segoe UI';fill:#000000"><v:paragraph
   v:horizAlign="1" /><v:tabList />ETA Analysis</text>
</g><g
     id="shape17-28"
     v:mID="17"
     v:groupContext="shape"
     transform="translate(19.210994,-673.67224)"><title
       id="title69">Sheet.17</title><path
       d="m 0,771.85 c 0,-11.12 13.09,-20.16 29.21,-20.16 16.15,0 29.22,9.04 29.22,20.16 C 58.43,782.98 45.36,792 29.21,792 13.09,792 0,782.98 0,771.85 Z"
       class="st1"
       id="path71"
       style="fill:#ffffff;stroke:none;stroke-width:0.75;stroke-linecap:round;stroke-linejoin:round"
       inkscape:connector-curvature="0" /></g><g
     id="shape18-30"
     v:mID="18"
     v:groupContext="shape"
     transform="translate(19.210994,-673.67224)"><title
       id="title74">Sheet.18</title><desc
       id="desc76">Finance</desc><v:textBlock
       v:margins="rect(4,4,4,4)" /><v:textRect
       cx="29.2133"
       cy="771.847"
       width="58.43"
       height="40.3052" /><path
       d="m 0,771.85 c 0,-11.12 13.09,-20.16 29.21,-20.16 16.15,0 29.22,9.04 29.22,20.16 C 58.43,782.98 45.36,792 29.21,792 13.09,792 0,782.98 0,771.85"
       class="st2"
       id="path78"
       style="stroke:#000000;stroke-width:0.66952097;stroke-linecap:round;stroke-linejoin:round"
       inkscape:connector-curvature="0" /><text
       x="14.11"
       y="774.54999"
       class="st3"
       v:langID="1033"
       id="text80"
       style="font-size:9px;font-family:'Segoe UI';fill:#000000"><v:paragraph
   v:horizAlign="1" /><v:tabList />Finance</text>
</g><g
     id="shape20-34"
     v:mID="20"
     v:groupContext="shape"
     transform="translate(382.65379,-743.18424)"><title
       id="title83">Sheet.20</title><path
       d="m 0,774.04 c 0,-9.91 16.52,-17.96 36.85,-17.96 20.36,0 36.86,8.05 36.86,17.96 0,9.93 -16.5,17.96 -36.86,17.96 C 16.52,792 0,783.97 0,774.04 Z"
       class="st1"
       id="path85"
       style="fill:#ffffff;stroke:none;stroke-width:0.75;stroke-linecap:round;stroke-linejoin:round"
       inkscape:connector-curvature="0" /></g><g
     id="shape21-36"
     v:mID="21"
     v:groupContext="shape"
     transform="translate(382.65379,-738.12724)"><title
       id="title88">Sheet.21</title><desc
       id="desc90">Drone predictive analysis</desc><v:textBlock
       v:margins="rect(4,4,4,4)" /><v:textRect
       cx="42.0409"
       cy="771.51"
       width="84.09"
       height="40.9806" /><path
       d="m 0,771.51 c 0,-11.31 18.84,-20.49 42.04,-20.49 23.22,0 42.04,9.18 42.04,20.49 C 84.08,782.84 65.26,792 42.04,792 18.84,792 0,782.84 0,771.51"
       class="st2"
       id="path92"
       style="stroke:#000000;stroke-width:0.66952097;stroke-linecap:round;stroke-linejoin:round"
       inkscape:connector-curvature="0" /><text
       x="9.0500002"
       y="768.81"
       class="st3"
       v:langID="1033"
       id="text96"
       style="font-size:9px;font-family:'Segoe UI';fill:#000000"><v:paragraph
   v:horizAlign="1" /><v:tabList />Drone predictive <tspan
   x="26.74"
   dy="1.2em"
   class="st4"
   id="tspan94"
   style="font-size:9px">analysis</tspan></text>
</g><g
     id="shape25-41"
     v:mID="25"
     v:groupContext="shape"
     transform="translate(0.33479396,-594.81424)"><title
       id="title99">Sheet.25</title><path
       d="m 0,771.85 c 0,-11.12 13.01,-20.16 29.06,-20.16 16.07,0 29.07,9.04 29.07,20.16 0,11.13 -13,20.15 -29.07,20.15 C 13.01,792 0,782.98 0,771.85 Z"
       class="st1"
       id="path101"
       style="fill:#ffffff;stroke:none;stroke-width:0.75;stroke-linecap:round;stroke-linejoin:round"
       inkscape:connector-curvature="0" /></g><g
     id="shape26-43"
     v:mID="26"
     v:groupContext="shape"
     transform="translate(0.33479396,-594.81424)"><title
       id="title104">Sheet.26</title><desc
       id="desc106">Loyalty</desc><v:textBlock
       v:margins="rect(4,4,4,4)" /><v:textRect
       cx="29.0634"
       cy="771.847"
       width="58.13"
       height="40.3052" /><path
       d="m 0,771.85 c 0,-11.12 13.01,-20.16 29.06,-20.16 16.07,0 29.07,9.04 29.07,20.16 0,11.13 -13,20.15 -29.07,20.15 C 13.01,792 0,782.98 0,771.85"
       class="st2"
       id="path108"
       style="stroke:#000000;stroke-width:0.66952097;stroke-linecap:round;stroke-linejoin:round"
       inkscape:connector-curvature="0" /><text
       x="15.05"
       y="774.54999"
       class="st3"
       v:langID="1033"
       id="text110"
       style="font-size:9px;font-family:'Segoe UI';fill:#000000"><v:paragraph
   v:horizAlign="1" /><v:tabList />Loyalty</text>
</g><g
     id="shape28-47"
     v:mID="28"
     v:groupContext="shape"
     transform="translate(290.07079,-632.78224)"><title
       id="title113">Sheet.28</title><path
       d="m 0,774.04 c 0,-9.91 15.64,-17.96 34.91,-17.96 19.28,0 34.9,8.05 34.9,17.96 0,9.93 -15.62,17.96 -34.9,17.96 C 15.64,792 0,783.97 0,774.04 Z"
       class="st1"
       id="path115"
       style="fill:#ffffff;stroke:none;stroke-width:0.75;stroke-linecap:round;stroke-linejoin:round"
       inkscape:connector-curvature="0" /></g><g
     id="shape29-49"
     v:mID="29"
     v:groupContext="shape"
     transform="translate(290.07079,-632.78224)"><title
       id="title118">Sheet.29</title><desc
       id="desc120">Third party</desc><v:textBlock
       v:margins="rect(4,4,4,4)" /><v:textRect
       cx="34.9061"
       cy="774.038"
       width="69.82"
       height="35.9242" /><path
       d="m 0,774.04 c 0,-9.91 15.64,-17.96 34.91,-17.96 19.28,0 34.9,8.05 34.9,17.96 0,9.93 -15.62,17.96 -34.9,17.96 C 15.64,792 0,783.97 0,774.04"
       class="st2"
       id="path122"
       style="stroke:#000000;stroke-width:0.66952097;stroke-linecap:round;stroke-linejoin:round"
       inkscape:connector-curvature="0" /><text
       x="13.26"
       y="776.73999"
       class="st3"
       v:langID="1033"
       id="text124"
       style="font-size:9px;font-family:'Segoe UI';fill:#000000"><v:paragraph
   v:horizAlign="1" /><v:tabList />Third party  </text>
</g><g
     id="shape34-53"
     v:mID="34"
     v:groupContext="shape"
     transform="translate(12.619294,-734.71424)"><title
       id="title127">Sheet.34</title><desc
       id="desc129">Returns</desc><v:textBlock
       v:margins="rect(4,4,4,4)" /><v:textRect
       cx="32.2095"
       cy="774.038"
       width="64.42"
       height="35.9242" /><path
       d="m 0,774.04 c 0,-9.91 14.44,-17.96 32.21,-17.96 17.79,0 32.21,8.05 32.21,17.96 C 64.42,783.97 50,792 32.21,792 14.44,792 0,783.97 0,774.04 Z"
       class="st1"
       id="path131"
       style="fill:#ffffff;stroke:none;stroke-width:0.75;stroke-linecap:round;stroke-linejoin:round"
       inkscape:connector-curvature="0" /><text
       x="17.07"
       y="776.73999"
       class="st3"
       v:langID="1033"
       id="text133"
       style="font-size:9px;font-family:'Segoe UI';fill:#000000"><v:paragraph
   v:horizAlign="1" /><v:tabList />Returns</text>
</g><g
     id="shape35-56"
     v:mID="35"
     v:groupContext="shape"
     transform="translate(12.619294,-734.71424)"><title
       id="title136">Sheet.35</title><path
       d="m 0,774.04 c 0,-9.91 14.44,-17.96 32.21,-17.96 17.79,0 32.21,8.05 32.21,17.96 C 64.42,783.97 50,792 32.21,792 14.44,792 0,783.97 0,774.04"
       class="st2"
       id="path138"
       style="stroke:#000000;stroke-width:0.66952097;stroke-linecap:round;stroke-linejoin:round"
       inkscape:connector-curvature="0" /></g><g
     id="shape37-59"
     v:mID="37"
     v:groupContext="shape"
     transform="translate(399.73279,-662.28124)"><title
       id="title141">Sheet.37</title><path
       d="m 0,769.22 c 0,-12.58 12.96,-22.78 28.91,-22.78 15.98,0 28.92,10.2 28.92,22.78 C 57.83,781.81 44.89,792 28.91,792 12.96,792 0,781.81 0,769.22 Z"
       class="st1"
       id="path143"
       style="fill:#ffffff;stroke:none;stroke-width:0.75;stroke-linecap:round;stroke-linejoin:round"
       inkscape:connector-curvature="0" /></g><g
     id="shape38-61"
     v:mID="38"
     v:groupContext="shape"
     transform="translate(399.73279,-662.28124)"><title
       id="title146">Sheet.38</title><desc
       id="desc148">Drone Repair</desc><v:textBlock
       v:margins="rect(4,4,4,4)" /><v:textRect
       cx="28.9136"
       cy="769.219"
       width="57.83"
       height="45.5624" /><path
       d="m 0,769.22 c 0,-12.58 12.96,-22.78 28.91,-22.78 15.98,0 28.92,10.2 28.92,22.78 C 57.83,781.81 44.89,792 28.91,792 12.96,792 0,781.81 0,769.22"
       class="st2"
       id="path150"
       style="stroke:#000000;stroke-width:0.66952097;stroke-linecap:round;stroke-linejoin:round"
       inkscape:connector-curvature="0" /><text
       x="16.66"
       y="766.52002"
       class="st3"
       v:langID="1033"
       id="text154"
       style="font-size:9px;font-family:'Segoe UI';fill:#000000"><v:paragraph
   v:horizAlign="1" /><v:tabList />Drone <tspan
   x="16.280001"
   dy="1.2em"
   class="st4"
   id="tspan152"
   style="font-size:9px">Repair</tspan></text>
</g><g
     id="shape41-66"
     v:mID="41"
     v:groupContext="shape"
     transform="translate(252.01779,-528.22324)"><title
       id="title157">Sheet.41</title><path
       d="m 0,773.02 c 0,-10.48 16.05,-18.99 35.8,-18.99 19.78,0 35.81,8.51 35.81,18.99 C 71.61,783.51 55.58,792 35.8,792 16.05,792 0,783.51 0,773.02 Z"
       class="st1"
       id="path159"
       style="fill:#ffffff;stroke:none;stroke-width:0.75;stroke-linecap:round;stroke-linejoin:round"
       inkscape:connector-curvature="0" /></g><g
     id="shape42-68"
     v:mID="42"
     v:groupContext="shape"
     transform="translate(252.01779,-528.22324)"><title
       id="title162">Sheet.42</title><desc
       id="desc164">Call center</desc><v:textBlock
       v:margins="rect(4,4,4,4)" /><v:textRect
       cx="35.805"
       cy="773.016"
       width="71.61"
       height="37.9687" /><path
       d="m 0,773.02 c 0,-10.48 16.05,-18.99 35.8,-18.99 19.78,0 35.81,8.51 35.81,18.99 C 71.61,783.51 55.58,792 35.8,792 16.05,792 0,783.51 0,773.02"
       class="st2"
       id="path166"
       style="stroke:#000000;stroke-width:0.66952097;stroke-linecap:round;stroke-linejoin:round"
       inkscape:connector-curvature="0" /><text
       x="14.9"
       y="775.71997"
       class="st3"
       v:langID="1033"
       id="text168"
       style="font-size:9px;font-family:'Segoe UI';fill:#000000"><v:paragraph
   v:horizAlign="1" /><v:tabList />Call center</text>
</g><g
     id="shape45-72"
     v:mID="45"
     v:groupContext="shape"
     transform="translate(94.833794,-736.75824)"><title
       id="title171">Sheet.45</title><desc
       id="desc173">Video surveillance</desc><v:textBlock
       v:margins="rect(4,4,4,4)" /><v:textRect
       cx="37.3939"
       cy="771.952"
       width="74.79"
       height="40.0959" /><path
       d="m 0,771.95 c 0,-11.06 16.74,-20.05 37.39,-20.05 20.66,0 37.4,8.99 37.4,20.05 C 74.79,783.03 58.05,792 37.39,792 16.74,792 0,783.03 0,771.95"
       class="st2"
       id="path175"
       style="stroke:#000000;stroke-width:0.66952097;stroke-linecap:round;stroke-linejoin:round"
       inkscape:connector-curvature="0" /><text
       x="25.870001"
       y="769.25"
       class="st3"
       v:langID="1033"
       id="text179"
       style="font-size:9px;font-family:'Segoe UI';fill:#000000"><v:paragraph
   v:horizAlign="1" /><v:tabList />Video <tspan
   x="14.33"
   dy="1.2em"
   class="st4"
   id="tspan177"
   style="font-size:9px">surveillance</tspan></text>
</g><g
     id="shape48-77"
     v:mID="48"
     v:groupContext="shape"
     transform="translate(182.20579,-756.03524)"><title
       id="title182">Sheet.48</title><path
       d="m 0,774.18 c 0,-9.84 14.76,-17.81 32.96,-17.81 18.2,0 32.96,7.97 32.96,17.81 C 65.92,784.02 51.16,792 32.96,792 14.76,792 0,784.02 0,774.18 Z"
       class="st1"
       id="path184"
       style="fill:#ffffff;stroke:none;stroke-width:0.75;stroke-linecap:round;stroke-linejoin:round"
       inkscape:connector-curvature="0" /></g><g
     id="shape49-79"
     v:mID="49"
     v:groupContext="shape"
     transform="translate(182.20579,-756.03524)"><title
       id="title187">Sheet.49</title><desc
       id="desc189">Drone sharing</desc><v:textBlock
       v:margins="rect(4,4,4,4)" /><v:textRect
       cx="32.9585"
       cy="774.184"
       width="65.92"
       height="35.6321" /><path
       d="m 0,774.18 c 0,-9.84 14.76,-17.81 32.96,-17.81 18.2,0 32.96,7.97 32.96,17.81 C 65.92,784.02 51.16,792 32.96,792 14.76,792 0,784.02 0,774.18"
       class="st2"
       id="path191"
       style="stroke:#000000;stroke-width:0.66952097;stroke-linecap:round;stroke-linejoin:round"
       inkscape:connector-curvature="0" /><text
       x="4.8699999"
       y="776.88"
       class="st3"
       v:langID="1033"
       id="text193"
       style="font-size:9px;font-family:'Segoe UI';fill:#000000"><v:paragraph
   v:horizAlign="1" /><v:tabList />Drone sharing</text>
</g><g
     id="shape52-83"
     v:mID="52"
     v:groupContext="shape"
     transform="translate(153.89179,-594.61324)"><title
       id="title196">Sheet.52</title><path
       d="M 21.87,739.37 0,792"
       class="st5"
       id="path198"
       style="stroke:#000000;stroke-width:0.33476001;stroke-linecap:round;stroke-linejoin:round"
       inkscape:connector-curvature="0" /></g><g
     id="shape57-86"
     v:mID="57"
     v:groupContext="shape"
     transform="translate(232.09279,-562.01124)"><title
       id="title201">Sheet.57</title><path
       d="M 160.62,792 0,706.77"
       class="st5"
       id="path203"
       style="stroke:#000000;stroke-width:0.33476001;stroke-linecap:round;stroke-linejoin:round"
       inkscape:connector-curvature="0" /></g><g
     id="shape58-89"
     v:mID="58"
     v:groupContext="shape"
     transform="translate(319.58279,-567.67024)"><title
       id="title206">Sheet.58</title><path
       d="M 99.4,792 0,637.08"
       class="st5"
       id="path208"
       style="stroke:#000000;stroke-width:0.33476001;stroke-linecap:round;stroke-linejoin:round"
       inkscape:connector-curvature="0" /></g><g
     id="shape59-92"
     v:mID="59"
     v:groupContext="shape"
     transform="translate(14.117394,-529.39124)"><title
       id="title211">Sheet.59</title><path
       d="m 0,771.99 c 0,-11.04 13.01,-20 29.06,-20 16.07,0 29.07,8.96 29.07,20 0,11.07 -13,20.01 -29.07,20.01 C 13.01,792 0,783.06 0,771.99 Z"
       class="st1"
       id="path213"
       style="fill:#ffffff;stroke:none;stroke-width:0.75;stroke-linecap:round;stroke-linejoin:round"
       inkscape:connector-curvature="0" /></g><g
     id="shape60-94"
     v:mID="60"
     v:groupContext="shape"
     transform="translate(14.117394,-529.39124)"><title
       id="title216">Sheet.60</title><desc
       id="desc218">User rating</desc><v:textBlock
       v:margins="rect(4,4,4,4)" /><v:textRect
       cx="29.0634"
       cy="771.993"
       width="58.13"
       height="40.0131" /><path
       d="m 0,771.99 c 0,-11.04 13.01,-20 29.06,-20 16.07,0 29.07,8.96 29.07,20 0,11.07 -13,20.01 -29.07,20.01 C 13.01,792 0,783.06 0,771.99"
       class="st2"
       id="path220"
       style="stroke:#000000;stroke-width:0.66952097;stroke-linecap:round;stroke-linejoin:round"
       inkscape:connector-curvature="0" /><text
       x="7.25"
       y="774.69"
       class="st3"
       v:langID="1033"
       id="text222"
       style="font-size:9px;font-family:'Segoe UI';fill:#000000"><v:paragraph
   v:horizAlign="1" /><v:tabList />User rating</text>
</g><g
     id="shape63-98"
     v:mID="63"
     v:groupContext="shape"
     transform="translate(232.09279,-693.93424)"><title
       id="title225">Sheet.63</title><path
       d="M 0,792 39.98,763.34"
       class="st5"
       id="path227"
       style="stroke:#000000;stroke-width:0.33476001;stroke-linecap:round;stroke-linejoin:round"
       inkscape:connector-curvature="0" /></g><g
     id="shape65-101"
     v:mID="65"
     v:groupContext="shape"
     transform="translate(329.17079,-684.95324)"><title
       id="title230">Sheet.65</title><path
       d="M 0,738.59 70.54,792"
       class="st5"
       id="path232"
       style="stroke:#000000;stroke-width:0.33476001;stroke-linecap:round;stroke-linejoin:round"
       inkscape:connector-curvature="0" /></g><g
     id="shape67-104"
     v:mID="67"
     v:groupContext="shape"
     transform="translate(319.58279,-753.88124)"><title
       id="title235">Sheet.67</title><path
       d="m 0,792 63.3,-7.27"
       class="st5"
       id="path237"
       style="stroke:#000000;stroke-width:0.33476001;stroke-linecap:round;stroke-linejoin:round"
       inkscape:connector-curvature="0" /></g><g
     id="shape70-107"
     v:mID="70"
     v:groupContext="shape"
     transform="translate(77.787394,-670.64224)"><title
       id="title240">Sheet.70</title><path
       d="M 0,768.96 86.27,792"
       class="st5"
       id="path242"
       style="stroke:#000000;stroke-width:0.33476001;stroke-linecap:round;stroke-linejoin:round"
       inkscape:connector-curvature="0" /></g><g
     id="shape73-110"
     v:mID="73"
     v:groupContext="shape"
     transform="translate(69.098294,-589.13724)"><title
       id="title245">Sheet.73</title><path
       d="M 0,701.77 62.28,792"
       class="st5"
       id="path247"
       style="stroke:#000000;stroke-width:0.33476001;stroke-linecap:round;stroke-linejoin:round"
       inkscape:connector-curvature="0" /></g><g
     id="shape76-113"
     v:mID="76"
     v:groupContext="shape"
     transform="translate(176.06379,-547.04324)"><title
       id="title250">Sheet.76</title><path
       d="M 0,775.92 75.92,792"
       class="st5"
       id="path252"
       style="stroke:#000000;stroke-width:0.33476001;stroke-linecap:round;stroke-linejoin:round"
       inkscape:connector-curvature="0" /></g><g
     id="shape77-116"
     v:mID="77"
     v:groupContext="shape"
     transform="translate(203.92879,-565.89924)"><title
       id="title255">Sheet.77</title><path
       d="M 0,720.3 84.08,792"
       class="st5"
       id="path257"
       style="stroke:#000000;stroke-width:0.33476001;stroke-linecap:round;stroke-linejoin:round"
       inkscape:connector-curvature="0" /></g><g
     id="shape78-119"
     v:mID="78"
     v:groupContext="shape"
     transform="translate(243.77879,-650.61724)"><title
       id="title260">Sheet.78</title><path
       d="M 46.52,792 0,772.01"
       class="st5"
       id="path262"
       style="stroke:#000000;stroke-width:0.33476001;stroke-linecap:round;stroke-linejoin:round"
       inkscape:connector-curvature="0" /></g><g
     id="shape79-122"
     v:mID="79"
     v:groupContext="shape"
     transform="translate(50.221994,-576.04824)"><title
       id="title265">Sheet.79</title><path
       d="M 72.13,792 0,767.54"
       class="st5"
       id="path267"
       style="stroke:#000000;stroke-width:0.33476001;stroke-linecap:round;stroke-linejoin:round"
       inkscape:connector-curvature="0" /></g><g
     id="shape80-125"
     v:mID="80"
     v:groupContext="shape"
     transform="translate(72.394094,-549.30624)"><title
       id="title270">Sheet.80</title><path
       d="M 59.01,778.18 0,792"
       class="st5"
       id="path272"
       style="stroke:#000000;stroke-width:0.33476001;stroke-linecap:round;stroke-linejoin:round"
       inkscape:connector-curvature="0" /></g><g
     id="shape81-128"
     v:mID="81"
     v:groupContext="shape"
     transform="translate(67.899794,-694.04324)"><title
       id="title275">Sheet.81</title><path
       d="M 107.88,792 0,746.22"
       class="st5"
       id="path277"
       style="stroke:#000000;stroke-width:0.33476001;stroke-linecap:round;stroke-linejoin:round"
       inkscape:connector-curvature="0" /></g><g
     id="shape82-131"
     v:mID="82"
     v:groupContext="shape"
     transform="translate(295.61379,-663.35824)"><title
       id="title280">Sheet.82</title><path
       d="M 0,739.19 4.74,792"
       class="st5"
       id="path282"
       style="stroke:#000000;stroke-width:0.33476001;stroke-linecap:round;stroke-linejoin:round"
       inkscape:connector-curvature="0" /></g><g
     id="shape94-134"
     v:mID="94"
     v:groupContext="shape"
     transform="translate(302.86079,-682.50724)"><title
       id="title285">Sheet.94</title><path
       d="m 0.3,792 c -0.08,0 -0.13,0 -0.15,-0.02 -0.04,0 -0.04,-0.03 -0.06,-0.05 L 0,790.85 c 0,-0.02 0.02,-0.05 0.04,-0.07 0.02,-0.02 0.07,-0.02 0.13,-0.04 0.07,0 0.11,0 0.15,0.02 0.02,0.02 0.04,0.04 0.04,0.07 l 0.11,1.06 c 0,0.02 0,0.04 -0.02,0.04 0,0.02 0,0.02 -0.02,0.03 -0.02,0 -0.04,0.02 -0.06,0.02 -0.01,0 -0.05,0.02 -0.07,0.02 z"
       class="st1"
       id="path287"
       style="fill:#ffffff;stroke:none;stroke-width:0.75;stroke-linecap:round;stroke-linejoin:round"
       inkscape:connector-curvature="0" /></g><g
     id="shape96-136"
     v:mID="96"
     v:groupContext="shape"
     transform="translate(238.68479,-753.84424)"><title
       id="title290">Sheet.96</title><path
       d="M 0,784.7 33.43,792"
       class="st5"
       id="path292"
       style="stroke:#000000;stroke-width:0.33476001;stroke-linecap:round;stroke-linejoin:round"
       inkscape:connector-curvature="0" /></g><g
     id="shape97-139"
     v:mID="97"
     v:groupContext="shape"
     transform="translate(169.77179,-738.34624)"><title
       id="title295">Sheet.97</title><path
       d="M 0,775.92 92.34,792"
       class="st5"
       id="path297"
       style="stroke:#000000;stroke-width:0.33476001;stroke-linecap:round;stroke-linejoin:round"
       inkscape:connector-curvature="0" /></g></svg>